<svg xmlns="http://www.w3.org/2000/svg" id="Ebene_1" data-name="Ebene 1" viewBox="0 0 500 153.32"><defs><style>.cls-1{fill:#0077c8;}</style></defs><title>1-encoway-logo-bigline-RGB</title><path class="cls-1" d="M372.76,30H394.5a8.73,8.73,0,0,1,7.79-7.79V.49A30.43,30.43,0,0,0,372.76,30Z" transform="translate(-0.31 -0.48)"></path><line class="cls-1" x1="402.38" y1="22.11" x2="402.38" y2="22.11"></line><path class="cls-1" d="M424.75,9.39A30.22,30.22,0,0,0,404.12.49V22.23a8.77,8.77,0,0,1,7.78,7.69h21.74A30.24,30.24,0,0,0,424.75,9.39Z" transform="translate(-0.31 -0.48)"></path><path class="cls-1" d="M402.29,61.33V39.6a30.4,30.4,0,0,0-29.52,29.49H394.5A8.77,8.77,0,0,1,402.29,61.33Z" transform="translate(-0.31 -0.48)"></path><rect class="cls-1" x="403.81" y="39.1" width="6.02" height="21.7"></rect><polygon class="cls-1" points="411.65 62.22 411.65 68.61 433.34 68.61 433.34 31.36 411.65 31.36 411.65 37.68 411.65 62.22"></polygon><path class="cls-1" d="M394.5,71H372.77a30.4,30.4,0,0,0,29.52,29.49V78.71A8.77,8.77,0,0,1,394.5,71Z" transform="translate(-0.31 -0.48)"></path><path class="cls-1" d="M433.64,71H411.9a8.77,8.77,0,0,1-7.78,7.76v21.73A30.4,30.4,0,0,0,433.64,71Z" transform="translate(-0.31 -0.48)"></path><rect class="cls-1" x="133.32" y="31.46" width="21.66" height="37.19"></rect><path class="cls-1" d="M194.43,30.11A30.36,30.36,0,0,0,165,.63v21.7a8.76,8.76,0,0,1,7.79,7.78Z" transform="translate(-0.31 -0.48)"></path><path class="cls-1" d="M133.65,30.11h21.69a8.76,8.76,0,0,1,7.79-7.78V.63a30.36,30.36,0,0,0-29.48,29.48Z" transform="translate(-0.31 -0.48)"></path><path class="cls-1" d="M163.13,100.44V78.74a8.76,8.76,0,0,1-7.77-7.65H133.65a30.37,30.37,0,0,0,29.48,29.35Z" transform="translate(-0.31 -0.48)"></path><path class="cls-1" d="M165,78.74v21.7A30.36,30.36,0,0,0,194.43,71H172.74A8.75,8.75,0,0,1,165,78.74Z" transform="translate(-0.31 -0.48)"></path><path class="cls-1" d="M29.8,22.33V.63A30.36,30.36,0,0,0,.32,30.11H22A8.75,8.75,0,0,1,29.8,22.33Z" transform="translate(-0.31 -0.48)"></path><polygon class="cls-1" points="21.66 68.65 21.66 62.31 21.66 37.8 21.66 31.45 0 31.45 0 68.65 21.66 68.65"></polygon><path class="cls-1" d="M29.8,100.44V78.74A8.74,8.74,0,0,1,22,71H.32A30.36,30.36,0,0,0,29.8,100.44Z" transform="translate(-0.31 -0.48)"></path><rect class="cls-1" x="39.15" y="31.46" width="21.66" height="5.94"></rect><path class="cls-1" d="M61.11,30.05A30.36,30.36,0,0,0,31.63.63v21.7a8.74,8.74,0,0,1,7.77,7.72Z" transform="translate(-0.31 -0.48)"></path><polygon class="cls-1" points="23.49 39.22 23.49 60.88 60.81 60.88 60.81 39.22 37.73 39.22 23.49 39.22"></polygon><path class="cls-1" d="M31.63,78.74v21.7A30.36,30.36,0,0,0,61.11,71H39.41A8.73,8.73,0,0,1,31.63,78.74Z" transform="translate(-0.31 -0.48)"></path><rect class="cls-1" x="105.83" y="70.49" width="21.64" height="29.47"></rect><rect class="cls-1" x="105.83" y="31.32" width="21.64" height="37.3"></rect><path class="cls-1" d="M98.3.48V22.16a8.78,8.78,0,0,1,7.79,7.78h21.67A30.36,30.36,0,0,0,98.3.48Z" transform="translate(-0.31 -0.48)"></path><rect class="cls-1" x="66.66" y="70.49" width="21.64" height="29.47"></rect><path class="cls-1" d="M96.44,22.16V.48A30.36,30.36,0,0,0,67,29.94H88.65A8.79,8.79,0,0,1,96.44,22.16Z" transform="translate(-0.31 -0.48)"></path><rect class="cls-1" x="66.66" y="31.32" width="21.64" height="37.3"></rect><rect class="cls-1" x="266.63" y="31.41" width="21.66" height="37.24"></rect><rect class="cls-1" x="266.63" y="0.09" width="21.66" height="29.49"></rect><rect class="cls-1" x="305.78" y="39.16" width="21.66" height="29.49"></rect><path class="cls-1" d="M288.66,71H267a30.37,30.37,0,0,0,29.48,29.4V78.74A8.75,8.75,0,0,1,288.66,71Z" transform="translate(-0.31 -0.48)"></path><path class="cls-1" d="M337.41,78.74v21.7A30.37,30.37,0,0,0,366.89,71H345.18A8.75,8.75,0,0,1,337.41,78.74Z" transform="translate(-0.31 -0.48)"></path><path class="cls-1" d="M327.8,71H306a8.73,8.73,0,0,1-7.78,7.78v21.7a30.19,30.19,0,0,0,18.09-6.66l.32-.25.25-.21.25.21.32.25a30.19,30.19,0,0,0,18.09,6.66V78.74A8.74,8.74,0,0,1,327.8,71Z" transform="translate(-0.31 -0.48)"></path><rect class="cls-1" x="344.93" y="31.41" width="21.66" height="37.24"></rect><rect class="cls-1" x="344.93" y="0.09" width="21.66" height="29.49"></rect><rect class="cls-1" x="478.37" y="31.33" width="21.63" height="37.3"></rect><path class="cls-1" d="M470.84,100.43A30.36,30.36,0,0,0,500.3,71H478.63a8.79,8.79,0,0,1-7.79,7.78Z" transform="translate(-0.31 -0.48)"></path><rect class="cls-1" x="439.2" width="21.63" height="29.47"></rect><path class="cls-1" d="M448.41,52.39A30.21,30.21,0,0,0,469,61.27V39.6a8.78,8.78,0,0,1-7.78-7.79H439.53A30.15,30.15,0,0,0,448.41,52.39Z" transform="translate(-0.31 -0.48)"></path><polygon class="cls-1" points="500 5.97 500 5.97 500 0 478.37 0 478.37 29.47 500 29.47 500 6.37 500 5.97"></polygon><rect class="cls-1" x="470.53" y="39.16" width="5.97" height="21.63"></rect><rect class="cls-1" x="439.21" y="78.32" width="29.47" height="21.63"></rect><path class="cls-1" d="M261.08,71H239.41a8.78,8.78,0,0,1-7.78,7.78v21.67A30.36,30.36,0,0,0,261.08,71Z" transform="translate(-0.31 -0.48)"></path><rect class="cls-1" x="239.15" y="31.34" width="21.63" height="37.3"></rect><rect class="cls-1" x="199.99" y="31.34" width="21.63" height="37.3"></rect><path class="cls-1" d="M231.62.51V22.18A8.78,8.78,0,0,1,239.41,30h21.67A30.36,30.36,0,0,0,231.62.51Z" transform="translate(-0.31 -0.48)"></path><path class="cls-1" d="M229.76,22.18V.51A30.36,30.36,0,0,0,200.31,30H222A8.77,8.77,0,0,1,229.76,22.18Z" transform="translate(-0.31 -0.48)"></path><path class="cls-1" d="M229.76,100.44V78.77A8.77,8.77,0,0,1,222,71H200.31a30.36,30.36,0,0,0,29.45,29.45Z" transform="translate(-0.31 -0.48)"></path><path class="cls-1" d="M30.26,150v-21.7a8.73,8.73,0,0,1-7.78-7.78H.78A30.36,30.36,0,0,0,30.26,150Z" transform="translate(-0.31 -0.48)"></path><rect class="cls-1" x="31.78" y="112.22" width="21.64" height="37.3"></rect><rect class="cls-1" x="55.24" y="120.06" width="21.64" height="29.47"></rect><rect class="cls-1" x="78.7" y="127.83" width="6.02" height="21.7"></rect><path class="cls-1" d="M116.4,120.53H94.64a8.74,8.74,0,0,1-7.78,7.78V150A30.19,30.19,0,0,0,105,143.35l.32-.25.25-.21.25.21.32.25A30.19,30.19,0,0,0,124.18,150v-21.7A8.73,8.73,0,0,1,116.4,120.53Z" transform="translate(-0.31 -0.48)"></path><path d="M144.87,132.86l-.87,1.6a9.32,9.32,0,0,0-3.9-1c-2,0-3.57.94-3.57,2.48,0,1.12.85,1.78,2.39,2.24l2.21.63c2.32.67,4,1.88,4,4.29s-2.18,4.24-5.6,4.24a12,12,0,0,1-6-1.61l.91-1.63a10.05,10.05,0,0,0,5,1.39c2.42,0,3.6-1.12,3.6-2.39s-1.21-2-2.72-2.44l-2.12-.61c-2.38-.69-3.74-2.08-3.74-4.14,0-2.57,2.11-4.29,5.41-4.29A11.91,11.91,0,0,1,144.87,132.86Z" transform="translate(-0.31 -0.48)"></path><path d="M151.7,132h4.9v1.66h-4.9v8.86c0,2.11,1.12,3,2.69,3a5.7,5.7,0,0,0,2.42-.54l.61,1.6a6.68,6.68,0,0,1-3.12.79,4.33,4.33,0,0,1-4.68-4.57v-9.16h-2.57V132h2.57l.48-4.63h1.6Z" transform="translate(-0.31 -0.48)"></path><path d="M172.32,138.12V147h-2.06V144.4a6.49,6.49,0,0,1-5.59,3c-3.57,0-5.92-1.88-5.92-4.72s2.35-4.62,5.89-4.62a12.58,12.58,0,0,1,5.53,1.3V138a4.24,4.24,0,0,0-4.53-4.44,9,9,0,0,0-5,1.6l-.79-1.54a9.37,9.37,0,0,1,5.9-1.93A6.16,6.16,0,0,1,172.32,138.12Zm-11.49,4.5c0,1.75,1.66,2.93,4.17,2.93a6.57,6.57,0,0,0,5.26-3v-1.78a13.23,13.23,0,0,0-5.35-1.15C162.46,139.63,160.83,140.81,160.83,142.62Z" transform="translate(-0.31 -0.48)"></path><path d="M190.54,138.45V147h-2v-8.58c0-3.11-1.72-5-4.11-5-2.9,0-5.17,2.3-5.23,6.14V147h-2.06V132h2.06v3.26a5.64,5.64,0,0,1,5.35-3.59C188,131.65,190.54,134.19,190.54,138.45Z" transform="translate(-0.31 -0.48)"></path><path d="M209.89,147h-2.06v-3.17a7,7,0,0,1-6.1,3.51c-4.54,0-7.53-3.18-7.53-7.86s3-7.86,7.53-7.86a7,7,0,0,1,6.1,3.5v-10h2.06Zm-13.63-7.52c0,3.56,2.23,6,5.65,6a6,6,0,0,0,0-12C198.49,133.49,196.26,135.94,196.26,139.51Z" transform="translate(-0.31 -0.48)"></path><path d="M227.06,138.12V147H225V144.4a6.5,6.5,0,0,1-5.59,3c-3.57,0-5.92-1.88-5.92-4.72s2.35-4.62,5.89-4.62a12.58,12.58,0,0,1,5.53,1.3V138a4.24,4.24,0,0,0-4.53-4.44,9,9,0,0,0-5,1.6l-.79-1.54a9.37,9.37,0,0,1,5.9-1.93A6.16,6.16,0,0,1,227.06,138.12Zm-11.49,4.5c0,1.75,1.66,2.93,4.17,2.93a6.57,6.57,0,0,0,5.26-3v-1.78a13.23,13.23,0,0,0-5.35-1.15C217.2,139.63,215.57,140.81,215.57,142.62Z" transform="translate(-0.31 -0.48)"></path><path d="M239.45,131.71v2a6.1,6.1,0,0,0-1.12-.12c-2.81,0-4.41,3.24-4.44,7.65V147h-2.06V132h2.06v3.72c.6-2.42,2.36-4,4.56-4C238.48,131.65,238.88,131.65,239.45,131.71Z" transform="translate(-0.31 -0.48)"></path><path d="M256.38,147h-2.06v-3.17a7,7,0,0,1-6.1,3.51c-4.54,0-7.53-3.18-7.53-7.86s3-7.86,7.53-7.86a7.06,7.06,0,0,1,6.1,3.5v-10h2.06Zm-13.64-7.52c0,3.56,2.24,6,5.66,6a6,6,0,0,0,0-12C245,133.49,242.74,135.94,242.74,139.51Z" transform="translate(-0.31 -0.48)"></path><path d="M279.44,126.09l-.82,1.6a6.91,6.91,0,0,0-2.93-1,3.22,3.22,0,0,0-3.32,3.54V132h4.74v1.66h-4.74V147h-2.06V133.64h-2.54V132h2.54v-2c0-3.17,2.15-5.07,5.23-5.07A8.25,8.25,0,0,1,279.44,126.09Z" transform="translate(-0.31 -0.48)"></path><path d="M294,139.51a7.89,7.89,0,1,1-7.92-7.86A7.9,7.9,0,0,1,294,139.51Zm-13.73,0a5.84,5.84,0,1,0,11.67,0,5.84,5.84,0,1,0-11.67,0Z" transform="translate(-0.31 -0.48)"></path><path d="M305.4,131.71v2a6,6,0,0,0-1.12-.12c-2.81,0-4.41,3.24-4.44,7.65V147h-2.06V132h2.06v3.72c.6-2.42,2.36-4,4.56-4C304.43,131.65,304.83,131.65,305.4,131.71Z" transform="translate(-0.31 -0.48)"></path><path d="M344,138.12V147h-2V144.4a6.52,6.52,0,0,1-5.6,3c-3.56,0-5.92-1.88-5.92-4.72s2.36-4.62,5.89-4.62a12.63,12.63,0,0,1,5.54,1.3V138a4.25,4.25,0,0,0-4.54-4.44,9,9,0,0,0-5,1.6l-.78-1.54a9.36,9.36,0,0,1,5.89-1.93A6.16,6.16,0,0,1,344,138.12Zm-11.49,4.5c0,1.75,1.67,2.93,4.18,2.93a6.58,6.58,0,0,0,5.26-3v-1.78a13.27,13.27,0,0,0-5.35-1.15C334.18,139.63,332.54,140.81,332.54,142.62Z" transform="translate(-0.31 -0.48)"></path><path d="M356.42,131.71v2a6,6,0,0,0-1.12-.12c-2.81,0-4.41,3.24-4.44,7.65V147h-2.05V132h2.05v3.72c.61-2.42,2.36-4,4.57-4C355.46,131.65,355.85,131.65,356.42,131.71Z" transform="translate(-0.31 -0.48)"></path><path d="M361.5,128.44h-2.33v-2.57h2.33ZM361.35,147h-2.06V132h2.06Z" transform="translate(-0.31 -0.48)"></path><path d="M380,138.69a5.82,5.82,0,0,1-.09,1.12H367.33c.19,3.54,2.39,5.71,5.93,5.71a8,8,0,0,0,4.32-1.18l1,1.42a9.55,9.55,0,0,1-5.32,1.61c-4.93,0-8-3.15-8-7.92s3.05-7.8,7.62-7.8A6.68,6.68,0,0,1,380,138.69Zm-12.54-.48h10.45a4.74,4.74,0,0,0-5-4.72A5.33,5.33,0,0,0,367.46,138.21Z" transform="translate(-0.31 -0.48)"></path><path d="M386.29,132h4.89v1.66h-4.89v8.86c0,2.11,1.11,3,2.69,3a5.69,5.69,0,0,0,2.41-.54l.61,1.6a6.67,6.67,0,0,1-3.11.79,4.34,4.34,0,0,1-4.69-4.57v-9.16h-2.57V132h2.57l.48-4.63h1.61Z" transform="translate(-0.31 -0.48)"></path><path d="M398.62,153.8h-2.09l2.87-6.89L392.87,132h2.36l5.26,12.6,5-12.6h2.39Z" transform="translate(-0.31 -0.48)"></path><path d="M323.24,147.06H320.9l-6-15.13h2.18l4.95,13,5-13h2.19Z" transform="translate(-0.31 -0.48)"></path></svg>